<?xml version="1.0" encoding="utf-8"?>
<svg viewBox="0 0 500 500" xmlns="http://www.w3.org/2000/svg">
  <path stroke="#fbfbfb" d="M 318.766 165.504 C 315.785 167.075 313.173 168.877 312.963 169.508 C 311.972 172.482 343.895 180.169 355.014 179.634 L 361.145 179.339 L 357.27 175.056 C 347.722 164.505 329.323 159.94 318.766 165.504 M 305.028 176.089 C 302.307 178.976 298.143 184.094 295.776 187.462 C 291.483 193.569 291.446 193.593 281.515 196.846 C 261.587 203.373 232.903 219.715 213.593 235.543 L 205 242.587 L 162.093 251.845 C 138.494 256.937 118.961 261.318 118.686 261.581 C 118.411 261.843 119.181 262.726 120.396 263.544 C 122.506 264.963 122.532 265.145 120.952 267.555 L 119.298 270.08 L 123.242 269.464 C 130.995 268.252 183.012 262.832 183.378 263.198 C 183.584 263.403 182.1 265.544 180.08 267.955 C 175.454 273.479 175.421 273.473 195.631 270.958 C 205.578 269.721 211.907 269.353 213.411 269.924 C 215.833 270.845 255.461 282.112 285.346 290.377 C 294.784 292.987 303.163 294.87 303.966 294.562 C 305.165 294.102 328.17 265.587 336.4 254.36 C 342.152 246.513 349.247 230.22 351.723 219.174 C 352.422 216.053 354.073 213.058 356.613 210.303 C 358.721 208.015 361.041 204.5 361.767 202.491 C 363.058 198.921 363.205 198.839 368.328 198.839 C 375.404 198.839 375.489 198.064 369.105 191.759 C 363.97 186.688 363.303 186.339 358.732 186.339 C 355.048 186.339 353.261 185.788 351.461 184.097 C 349.724 182.465 348.003 181.903 345.131 182.029 C 342.961 182.124 336.045 181.22 329.761 180.02 C 316.403 177.47 312.195 177.325 308.436 179.286 C 304.875 181.143 304.805 179.599 308.222 174.571 C 311.664 169.505 310.883 169.876 305.028 176.089 M 314.151 185.738 C 310.525 187.302 309.395 189.569 309.921 194.228 C 311.701 210.02 339.014 217.747 350.93 205.83 C 356.858 199.903 355.163 191.26 348.329 192.567 C 346.528 192.911 344.85 192.313 342.814 190.601 C 338.618 187.069 318.842 183.714 314.151 185.738" fill-rule="evenodd" style="stroke-miterlimit: 1; stroke-width: 10px; paint-order: stroke markers; fill: rgb(250, 255, 97);"/>
  <path fill="#58a5cc" stroke="#58a5cc" d="M323.5 163.603c-5.959 2.152-9.415 5.101-7.5 6.399 5.693 3.858 45 11.149 45 8.348 0-1.833-7.569-8.178-13-10.897-10.484-5.25-17.551-6.36-24.5-3.85m-18.161 13.647c-2.313 2.462-10.423 13.028-11.949 15.567-.104.174-4.758 1.867-10.341 3.762-22.086 7.497-44.676 20.132-66.223 37.041l-10.674 8.376-41.326 9.018c-48.251 10.529-44.567 9.51-42.533 11.757 1.13 1.249 1.293 2.217.587 3.48-1.293 2.31-.904 2.3 26.372-.689 12.236-1.341 25.608-2.759 29.716-3.151l7.467-.712-4.23 4.805c-2.326 2.643-4.055 4.979-3.843 5.192.213.212 6.406-.332 13.762-1.209 67.778-8.085 112.504-26.284 126.549-51.493 2.272-4.077 3.22-4.962 4.827-4.507 19.091 5.408 32.297.972 39.413-13.237 2.076-4.146 2.249-4.25 7.107-4.25 6.316 0 6.246-.599-.781-6.711-4.838-4.208-6.131-4.873-8.074-4.154-2.437.901-4.743.059-9.099-3.323-1.589-1.233-3.326-1.697-5-1.334-1.411.306-6.841-.4-12.066-1.569-13.516-3.025-22.928-3.073-26.902-.138l-3.074 2.271 1.183-2.771c.651-1.524 1.601-3.333 2.111-4.021 1.765-2.38.061-1.236-2.979 2m9.161 7.875c-6.72 4.045-4.048 15.035 5.06 20.811 15.029 9.531 36.44 4.401 36.44-8.731 0-3.823-2.975-6.5-6.296-5.667-1.861.467-3.128.038-4.788-1.622-3.957-3.957-26.026-7.433-30.416-4.791m1.022 70.95c-5.377 6.844-5.326 7.002 3.044 9.276 8.182 2.224 7.585 2.438 12.781-4.572 5.205-7.022 5.22-6.969-2.501-9.168-7.996-2.278-8.038-2.264-13.324 4.464m-27.325 9.366-5.161 6.441-7.006-1.941c-9.476-2.626-9.01-2.766-14.802 4.462l-5.132 6.404 8.163 2.202 8.162 2.203 2.54-2.923a296.664 296.664 0 0 0 5.539-6.635l3-3.713 7.5 2.142c4.125 1.179 7.66 2.289 7.856 2.469.195.179-1.771 3.089-4.37 6.467-5.326 6.921-5.28 7.06 3.08 9.332 8.148 2.215 7.53 2.424 12.849-4.346 4.412-5.616 5.085-7.987 2.276-8.019-.655-.007-3.82-.8-7.034-1.762l-5.843-1.75 5.042-6.487c5.708-7.344 5.768-7.112-2.422-9.338-8.562-2.328-8.52-2.341-14.237 4.792" fill-rule="evenodd"/>
  <path fill="#d7d8d7" stroke="#d7d8d7" d="M308.301 179.958c-8.11 4.945-5.96 18.891 4.304 27.925 8.068 7.102 24.45 10.259 35.779 6.895 5.13-1.524 12.831-9.002 14.187-13.778.957-3.366 1.195-3.512 6.212-3.802 6.401-.371 6.411-.597.298-6.618-4.081-4.02-5.385-4.755-7.66-4.32-3.338.638-8.061-.879-8.809-2.83-.362-.942-2.059-1.43-4.971-1.43-2.431 0-8.795-.9-14.141-2-12.645-2.602-20.978-2.616-25.199-.042m5.001 5.543c-5.19 3.635-3.629 12.281 3.323 18.4 12.687 11.168 35.257 9.076 39.46-3.657 1.527-4.629-1.216-8.694-5.969-8.844-1.742-.055-4.169-1.031-5.392-2.169-4.537-4.221-26.927-6.879-31.422-3.73" fill-rule="evenodd"/>
  <path fill="#070708" stroke="#070708" d="M309.383 179.583c-12.006 5.923-3.973 27.271 12.617 33.534 17.364 6.555 34.052 1.655 39.564-11.617 2.029-4.887 2.862-5.465 7.898-5.485l3.963-.015-4.93-5.005c-4.314-4.38-5.309-4.933-7.974-4.433-2.264.425-4.014-.086-6.822-1.992-2.371-1.608-4.973-2.5-6.988-2.395-1.766.093-8.071-.809-14.012-2.003-12.674-2.549-19.019-2.709-23.316-.589m2.69 7.052c-10.099 12.838 18.335 31.517 34.927 22.945 11.608-5.997 13.662-18.58 3.034-18.58-2.691 0-4.33-.585-5.227-1.864-1.751-2.497-13.662-5.136-23.182-5.136-6.89 0-7.643.208-9.552 2.635" fill-rule="evenodd"/>
</svg>
